# xmcd CD database file
#
# Track frame offsets:
#	182
#	28450
#	33880
#	54512
#	74455
#	99807
#	119990
#	142615
#	168482
#	194600
#	198842
#	223920
#
# Disc length: 3357 seconds
#
# Revision: 0
# Processed by: cddbd v1.5PL3 Copyright (c) Steve Scherf et al.
# Submitted via: CDex 1.50
#
DISCID=b40d1b0c
DTITLE=Richard Pachman - Sun
DYEAR=1994
DGENRE=New Age
TTITLE0=Introduction
TTITLE1=Ship II
TTITLE2=4 Tones
TTITLE3=For Children
TTITLE4=August
TTITLE5=First Love
TTITLE6=Sun
TTITLE7=Flying
TTITLE8=Coral Reef
TTITLE9=Sea Wind II
TTITLE10=Ship
TTITLE11=Finale
EXTD=YEAR: 1994
EXTT0=
EXTT1=
EXTT2=
EXTT3=
EXTT4=
EXTT5=
EXTT6=
EXTT7=
EXTT8=
EXTT9=
EXTT10=
EXTT11=
PLAYORDER=
